<?xml version="1.0" standalone="no"?>
<!DOCTYPE svg PUBLIC "-//W3C//DTD SVG 20010904//EN"
 "http://www.w3.org/TR/2001/REC-SVG-20010904/DTD/svg10.dtd">
<svg version="1.0" xmlns="http://www.w3.org/2000/svg"
 width="700.000000pt" height="700.000000pt" viewBox="0 0 700.000000 700.000000"
 preserveAspectRatio="xMidYMid meet">
<metadata>
Created by potrace 1.14, written by Peter Selinger 2001-2017
</metadata>
<g transform="translate(0.000000,700.000000) scale(0.100000,-0.100000)"
fill="#000000" stroke="none">
<path d="M5609 6366 c-2 -2 -31 -6 -64 -10 -33 -3 -71 -8 -85 -11 -14 -3 -41
-8 -60 -11 -124 -20 -381 -99 -518 -160 -275 -122 -586 -319 -752 -474 -92
-87 -113 -105 -106 -92 6 11 -22 28 -59 36 -5 1 -62 19 -125 39 -92 29 -372
105 -449 122 -9 2 -59 13 -111 25 -139 32 -355 68 -457 77 -155 14 -467 8
-585 -11 -319 -51 -587 -169 -828 -364 -249 -200 -424 -484 -470 -762 -7 -41
-14 -84 -16 -95 -8 -40 -5 -192 5 -260 67 -455 441 -815 906 -871 28 -4 53 -8
57 -10 9 -6 236 -5 268 0 14 2 59 10 100 16 94 15 256 68 354 115 302 145 520
389 622 695 65 198 12 342 -153 417 -81 37 -187 38 -263 2 -96 -45 -141 -104
-194 -251 -15 -42 -43 -88 -86 -144 -24 -31 -111 -99 -163 -128 -115 -63 -254
-92 -399 -83 -96 6 -144 13 -162 25 -6 3 -17 7 -24 8 -23 4 -96 52 -130 85
-67 65 -93 147 -88 274 6 150 65 279 189 411 139 148 331 244 572 288 78 14
396 15 470 2 17 -3 59 -10 95 -15 36 -6 92 -15 125 -20 55 -10 76 -14 123 -25
9 -2 49 -11 87 -20 39 -9 86 -20 105 -26 53 -15 239 -66 292 -80 l46 -12 -68
-137 c-108 -216 -223 -523 -304 -814 -36 -128 -86 -312 -91 -337 -2 -8 -13
-58 -26 -110 -13 -52 -22 -98 -21 -103 3 -12 -39 -24 -108 -31 -36 -4 -76 -9
-90 -11 -14 -2 -45 -7 -70 -10 -25 -3 -63 -8 -85 -11 -22 -3 -65 -9 -95 -14
-30 -5 -73 -12 -95 -15 -61 -8 -100 -15 -215 -36 -58 -10 -122 -21 -144 -25
-68 -10 -76 -13 -129 -37 -143 -65 -227 -244 -180 -385 55 -164 195 -245 378
-218 28 4 91 14 140 22 50 8 101 17 115 19 102 17 393 55 396 52 3 -2 -49
-178 -91 -312 -56 -178 -151 -403 -225 -529 -112 -194 -289 -401 -440 -514
-163 -123 -356 -203 -550 -229 -71 -9 -258 -9 -335 0 -281 36 -525 225 -561
437 -23 139 8 343 76 495 59 133 168 289 222 321 49 29 105 139 112 219 3 38
-24 120 -57 172 -32 50 -110 129 -149 149 -74 38 -191 26 -275 -29 -284 -188
-503 -563 -553 -947 -6 -47 -13 -101 -16 -120 -7 -45 -6 -215 1 -260 3 -19 7
-44 9 -55 16 -104 39 -175 101 -310 115 -250 339 -472 598 -590 96 -43 255
-92 367 -111 146 -26 457 -26 585 0 135 27 164 35 290 78 434 149 848 503
1108 948 179 307 302 630 430 1128 18 72 36 135 40 138 12 12 215 23 553 29
134 3 254 10 274 16 132 42 233 173 233 304 1 93 -27 159 -98 231 -80 81 -128
97 -285 97 -105 0 -409 -11 -465 -18 -41 -4 -44 6 -23 85 10 41 21 82 23 90
27 117 129 457 175 585 80 224 230 532 252 519 4 -3 16 -7 25 -9 10 -2 59 -14
108 -28 133 -38 276 -75 308 -81 15 -2 35 -7 45 -10 48 -15 337 -63 423 -71
41 -4 90 -9 109 -11 49 -5 335 -4 390 1 378 39 697 167 892 359 243 238 316
567 184 831 -44 88 -61 114 -122 177 -113 118 -283 213 -487 272 -47 14 -104
28 -128 32 -24 3 -55 9 -69 11 -30 6 -376 14 -381 9z m316 -657 c105 -17 118
-22 218 -67 44 -20 77 -41 77 -49 0 -21 -54 -96 -92 -128 -56 -47 -210 -107
-333 -130 -105 -19 -318 -24 -470 -12 -76 7 -94 9 -175 23 -19 3 -46 8 -60 10
-64 11 -138 27 -183 41 l-50 15 30 18 c215 130 549 257 726 276 29 3 54 7 56
9 7 7 208 3 256 -6z"/>
</g>
</svg>
