<?xml version="1.0" encoding="UTF-8" standalone="no"?>
<!-- Created with Inkscape (http://www.inkscape.org/) -->

<svg
   width="11.861097mm"
   height="4.0118032mm"
   viewBox="0 0 11.861097 4.0118032"
   version="1.1"
   id="svg1"
   xmlns="http://www.w3.org/2000/svg"
   xmlns:svg="http://www.w3.org/2000/svg">
  <defs
     id="defs1" />
  <g
     id="layer1"
     transform="translate(-60.553949,-111.5131)">
    <path
       id="text16-6"
       style="font-size:3.175px;font-family:Alifia;-inkscape-font-specification:Alifia;fill:#ffffff;stroke-width:0.264583"
       d="m 59.755859,112.91797 c -0.367422,0 -0.730137,0.17091 -0.988281,0.375 -0.0014,6.9e-4 -0.0044,0.001 -0.0059,0.002 a 0.01501641,0.01501641 0 0 0 -0.002,0.002 c -0.04047,0.0337 -0.08383,0.0732 -0.126954,0.11718 a 0.01501641,0.01501641 0 0 0 -0.0098,-0.0195 l -0.181641,-0.0566 h -0.002 c -0.0016,-5.6e-4 -0.0042,-0.001 -0.0059,-0.002 -0.248303,-0.0677 -0.494775,-0.12891 -0.744141,-0.12891 -0.05188,0 -0.102502,0.005 -0.144531,0.008 -7.16e-4,0 -0.0012,-10e-6 -0.002,0 a 0.01501641,0.01501641 0 0 0 -0.002,0 c -0.425216,0.0448 -0.802095,0.32145 -0.888672,0.70899 h 0.002 c -0.01259,0.0547 -0.01953,0.10801 -0.01953,0.1582 0,0.31346 0.2302,0.59645 0.566406,0.65039 0.04308,0.007 0.08929,0.0137 0.138672,0.0137 0.319348,0 0.674156,-0.17975 0.787109,-0.54101 v -0.002 c 0.02505,-0.0573 0.02379,-0.12607 -0.0039,-0.17579 -0.02723,-0.0489 -0.072,-0.0806 -0.121094,-0.0957 a 0.01501641,0.01501641 0 0 0 -0.002,0 c -0.109678,-0.0332 -0.224629,0.0295 -0.255859,0.14063 a 0.01501641,0.01501641 0 0 0 -0.002,0.004 c 0,0 0,0.002 0,0.002 -0.04541,0.16118 -0.22012,0.25585 -0.398437,0.25585 -0.02649,0 -0.05092,-0.002 -0.07227,-0.006 a 0.01501641,0.01501641 0 0 0 -0.0039,0 h -0.002 c -0.07283,-0.0134 -0.125631,-0.0408 -0.160156,-0.0801 -0.03485,-0.0397 -0.05078,-0.0917 -0.05078,-0.15821 0,-0.0193 0.0026,-0.0502 0.0098,-0.082 a 0.01501641,0.01501641 0 0 0 0,-0.002 c 2.09e-4,-7.7e-4 0.0017,-0.001 0.002,-0.002 v -0.002 c 0.04743,-0.16825 0.21849,-0.34202 0.521485,-0.3789 0.03464,-0.003 0.06948,-0.004 0.101562,-0.004 0.182307,0 0.39766,0.0452 0.632813,0.11328 a 0.01501641,0.01501641 0 0 0 0.002,0 l 0.0039,0.002 0.08203,0.0215 c -0.162898,0.29461 -0.25409,0.637 -0.333984,0.97656 -0.197331,0.0234 -0.392138,0.0507 -0.615235,0.0937 -0.0036,6e-4 -0.0082,0.003 -0.01172,0.004 -0.101396,0.0274 -0.168263,0.13492 -0.154297,0.23242 9.58e-4,0.007 0.004,0.0144 0.0059,0.0215 0.01238,0.043 0.03899,0.0884 0.08594,0.11915 0.04772,0.0313 0.1125,0.0406 0.166015,0.0254 l -0.002,0.002 c 0.150253,-0.0287 0.282097,-0.0441 0.416016,-0.0625 -0.06289,0.22817 -0.134176,0.43746 -0.228516,0.58398 -0.24218,0.37609 -0.516461,0.44336 -0.722656,0.44336 -0.06232,0 -0.11907,-0.007 -0.164063,-0.0176 -0.04412,-0.01 -0.0772,-0.0231 -0.08984,-0.0293 h -0.002 c -0.104709,-0.0539 -0.162631,-0.11319 -0.191407,-0.17774 -0.02892,-0.0649 -0.0286,-0.13721 -0.01758,-0.21679 a 0.01501641,0.01501641 0 0 0 0,-0.002 c 0,0 0,-0.002 0,-0.002 v -0.002 c 0.0099,-0.0792 0.04442,-0.16256 0.08203,-0.22852 0.01895,-0.0332 0.03803,-0.0622 0.05469,-0.084 0.01622,-0.0212 0.03166,-0.0351 0.03711,-0.0391 0.0092,-0.006 0.01745,-0.0123 0.02539,-0.0195 a 0.01501641,0.01501641 0 0 0 0,-0.002 c 0.03076,-0.0307 0.0512,-0.0637 0.06055,-0.11133 0.0094,-0.0479 -0.01468,-0.11384 -0.05859,-0.16406 -0.02639,-0.0306 -0.05883,-0.0669 -0.107422,-0.0762 -0.05924,-0.0113 -0.115324,0.01 -0.15625,0.041 -0.178694,0.12573 -0.314967,0.35815 -0.345703,0.63477 a 0.01501641,0.01501641 0 0 0 0,0.002 c 0,0 0,0.002 0,0.002 -0.0027,0.0259 -0.0098,0.0644 -0.0098,0.11328 0,0.25519 0.131485,0.53853 0.441407,0.69726 a 0.01501641,0.01501641 0 0 0 0.002,0 c 0.09831,0.0491 0.249346,0.0957 0.439453,0.0957 0.05816,0 0.129479,-0.004 0.205078,-0.0195 0.285626,-0.0519 0.606959,-0.22941 0.857422,-0.61132 a 0.01501641,0.01501641 0 0 0 0,-0.002 l 0.0039,-0.006 v -0.002 c 0.161391,-0.24914 0.247336,-0.54987 0.322266,-0.85352 0.150283,-0.01 0.301903,-0.0156 0.478515,-0.0156 0.108222,0 0.207032,-0.0988 0.207032,-0.20703 0,-0.10729 -0.0905,-0.20899 -0.207032,-0.20899 -0.134371,0 -0.250295,0.008 -0.36914,0.0137 0.07795,-0.32052 0.166401,-0.61464 0.296875,-0.82422 0.133469,0.0367 0.266165,0.0747 0.40039,0.10156 a 0.01501641,0.01501641 0 0 0 0.0039,0 c 0,0 0.002,0 0.002,0 0.125091,0.0236 0.250625,0.0391 0.376953,0.0391 0.184363,0 0.369344,-0.0334 0.541016,-0.12109 a 0.01501641,0.01501641 0 0 0 0.002,0 c 0.173354,-0.0889 0.320312,-0.25916 0.320312,-0.47852 0,-0.13214 -0.07656,-0.27307 -0.210937,-0.35937 -0.150662,-0.0977 -0.323048,-0.13672 -0.490235,-0.13672 z m 0.0059,0.41797 c 0.104396,0 0.197434,0.0245 0.267578,0.0684 v -0.002 c 0.0107,0.007 0.01414,0.0122 0.01563,0.0137 0,-0.002 -0.0013,0.007 -0.0059,0.0156 -0.0046,0.009 -0.01082,0.0197 -0.01953,0.0312 -0.01743,0.0232 -0.04184,0.0477 -0.06836,0.0605 a 0.01501641,0.01501641 0 0 0 -0.0039,0.002 c -0.100878,0.0517 -0.215762,0.0723 -0.353516,0.0723 -0.09474,0 -0.196573,-0.0106 -0.302734,-0.0312 -0.001,-3.4e-4 -0.0029,3.1e-4 -0.0039,0 a 0.01501641,0.01501641 0 0 0 -0.002,-0.002 c -0.03671,-0.006 -0.07805,-0.018 -0.11914,-0.0293 0.184124,-0.11184 0.406626,-0.19922 0.595703,-0.19922 z"
       transform="translate(4.4211372,-1.4048678)" />
    <path
       style="font-size:3.175px;font-family:'Monice Demo';-inkscape-font-specification:'Monice Demo';fill:#ffffff;stroke-width:0.264583"
       d="m 63.70395,113.46147 q 0.223243,-0.22324 0.537952,-0.22324 0.31471,0 0.537952,0.22324 0.224792,0.22325 0.224792,0.53795 v 0.59067 q 0,0.0729 -0.04961,0.12247 -0.04961,0.0496 -0.122473,0.0496 -0.06046,0 -0.10697,-0.0357 -0.04496,-0.0372 -0.06046,-0.093 -0.193786,0.12868 -0.42323,0.12868 -0.314709,0 -0.537952,-0.22324 -0.223242,-0.2248 -0.223242,-0.53951 0,-0.3147 0.223242,-0.53795 z m 0.243396,0.83251 q 0.122474,0.12247 0.294556,0.12247 0.172083,0 0.294556,-0.12247 0.122473,-0.12247 0.122473,-0.29456 0,-0.17208 -0.122473,-0.293 -0.122473,-0.12247 -0.294556,-0.12247 -0.172082,0 -0.294556,0.12247 -0.120922,0.12092 -0.120922,0.293 0,0.17209 0.120922,0.29456 z m 3.150196,-1.05575 q 0.310058,0 0.52865,0.22014 0.220141,0.21859 0.220141,0.52865 v 0.60307 q 0,0.0791 -0.06046,0.13022 -0.06046,0.0512 -0.141077,0.0388 -0.06356,-0.0108 -0.103869,-0.062 -0.04031,-0.0512 -0.04031,-0.11628 v -0.59376 q 0,-0.16743 -0.117822,-0.28525 -0.117823,-0.11782 -0.285254,-0.11782 -0.167432,0 -0.286804,0.11782 -0.117823,0.11782 -0.117823,0.28525 v 0.60307 q 0,0.0682 -0.04651,0.11782 -0.04651,0.0496 -0.114721,0.0543 -0.0062,0 -0.04031,-0.003 -0.06356,-0.0108 -0.103869,-0.062 -0.04031,-0.0512 -0.04031,-0.11628 v -0.59376 q 0,-0.16743 -0.117822,-0.28525 -0.117823,-0.11782 -0.285254,-0.11782 -0.167432,0 -0.286804,0.11782 -0.117823,0.11782 -0.117823,0.28525 v 0.60307 q 0,0.0791 -0.06046,0.13022 -0.06046,0.0512 -0.141077,0.0388 -0.06356,-0.0108 -0.103869,-0.062 -0.04031,-0.0512 -0.04031,-0.11628 v -0.59376 q 0,-0.31006 0.220142,-0.52865 0.220141,-0.22014 0.5302,-0.22014 0.170532,0 0.32091,0.0729 0.150379,0.0713 0.255799,0.19844 0.10542,-0.12712 0.255798,-0.19844 0.150379,-0.0729 0.320911,-0.0729 z m 1.137915,0 q 0.07131,0 0.120923,0.0512 0.05116,0.0496 0.05116,0.12092 v 1.17978 q 0,0.0729 -0.04961,0.12247 -0.04961,0.0496 -0.122473,0.0496 -0.07286,0 -0.122473,-0.0496 -0.04961,-0.0496 -0.04961,-0.12247 v -1.17978 q 0,-0.0713 0.04961,-0.12092 0.04961,-0.0512 0.122473,-0.0512 z m 0.165881,-0.30696 q -0.06821,0.0698 -0.165881,0.0698 -0.09767,0 -0.167432,-0.0698 -0.06821,-0.0698 -0.06821,-0.16743 0,-0.0977 0.06821,-0.16588 0.06976,-0.0698 0.167432,-0.0698 0.09767,0 0.165881,0.0698 0.06976,0.0682 0.06976,0.16588 0,0.0977 -0.06976,0.16743 z m 0.42013,0.30696 q 0.07131,0 0.120923,0.0512 0.05116,0.0496 0.05116,0.12092 v 1.17978 q 0,0.0729 -0.04961,0.12247 -0.04961,0.0496 -0.122473,0.0496 -0.07286,0 -0.122473,-0.0496 -0.04961,-0.0496 -0.04961,-0.12247 v -1.17978 q 0,-0.0713 0.04961,-0.12092 0.04961,-0.0512 0.122473,-0.0512 z m 0.165881,-0.30696 q -0.06821,0.0698 -0.165881,0.0698 -0.09767,0 -0.167432,-0.0698 -0.06821,-0.0698 -0.06821,-0.16743 0,-0.0977 0.06821,-0.16588 0.06976,-0.0698 0.167432,-0.0698 0.09767,0 0.165881,0.0698 0.06976,0.0682 0.06976,0.16588 0,0.0977 -0.06976,0.16743 z m 1.570447,0.30851 q 0.06356,0.0109 0.103869,0.062 0.04031,0.0512 0.04031,0.11783 v 1.35495 q 0,0.31006 -0.220142,0.5302 -0.218591,0.22014 -0.52865,0.22014 -0.249597,0 -0.448034,-0.14883 -0.196888,-0.14727 -0.268201,-0.37982 -0.02481,-0.0822 0.02635,-0.15193 0.05271,-0.0698 0.139526,-0.0698 0.05736,0 0.10232,0.0341 0.04651,0.0357 0.06356,0.0899 0.04031,0.12403 0.145727,0.20154 0.10542,0.0791 0.238745,0.0791 0.167432,0 0.285254,-0.11937 0.117823,-0.11783 0.117823,-0.28526 v -0.13177 q -0.186036,0.11937 -0.403077,0.11937 -0.310058,0 -0.5302,-0.21859 -0.220141,-0.22014 -0.220141,-0.5302 v -0.60307 q 0,-0.0791 0.06046,-0.13022 0.06046,-0.0527 0.141077,-0.0403 0.06356,0.0109 0.103869,0.0636 0.04031,0.0512 0.04031,0.11628 v 0.59376 q 0,0.16743 0.117822,0.28525 0.119373,0.11782 0.286804,0.11782 0.167432,0 0.285254,-0.11782 0.117823,-0.11782 0.117823,-0.28525 v -0.60307 q 0,-0.0791 0.06046,-0.13022 0.06046,-0.0527 0.141077,-0.0403 z m 1.713073,0 q 0.06356,0.0109 0.10387,0.062 0.04031,0.0512 0.04031,0.11783 v 0.59376 q 0,0.31006 -0.220142,0.5302 -0.218591,0.21859 -0.52865,0.21859 -0.310059,0 -0.5302,-0.21859 -0.220142,-0.22014 -0.220142,-0.5302 v -0.60307 q 0,-0.0791 0.06046,-0.13022 0.06046,-0.0527 0.141076,-0.0403 0.06356,0.0109 0.10387,0.0636 0.04031,0.0512 0.04031,0.11628 v 0.59376 q 0,0.16743 0.117822,0.28525 0.119372,0.11782 0.286804,0.11782 0.167432,0 0.285254,-0.11782 0.117822,-0.11782 0.117822,-0.28525 v -0.60307 q 0,-0.0791 0.06046,-0.13022 0.06046,-0.0527 0.141076,-0.0403 z"
       id="text20"
       aria-label="amiiyu" />
  </g>
</svg>
